<svg width="18" height="19" viewBox="0 0 18 19" fill="none" xmlns="http://www.w3.org/2000/svg">
<path fill-rule="evenodd" clip-rule="evenodd" d="M9 18.5C13.9706 18.5 18 14.4706 18 9.5C18 4.52944 13.9706 0.5 9 0.5C4.02944 0.5 0 4.52944 0 9.5C0 14.4706 4.02944 18.5 9 18.5ZM9.00343 16.2832C8.06867 16.2832 7.3109 15.5254 7.3109 14.5906V11.6386H4.33963C3.40488 11.6386 2.64711 10.8808 2.64711 9.94608C2.64711 9.01132 3.40488 8.25355 4.33963 8.25355H7.3109V4.85859C7.3109 3.92384 8.06867 3.16607 9.00343 3.16607C9.93819 3.16607 10.696 3.92384 10.696 4.85859V8.25355H14.0717C15.0064 8.25355 15.7642 9.01132 15.7642 9.94608C15.7642 10.8808 15.0064 11.6386 14.0717 11.6386H10.696V14.5906C10.696 15.5254 9.93819 16.2832 9.00343 16.2832Z" fill="#1CA4DC"/>
</svg>
