<svg width="28" height="29" viewBox="0 0 28 29" fill="none" xmlns="http://www.w3.org/2000/svg">
<path d="M27.8367 11.9726C27.187 7.97979 25.2283 4.79783 21.9318 2.48676C19.2762 0.621134 16.3014 -0.170899 13.067 0.030554C11.5764 0.124841 10.111 0.462931 8.72833 1.03156C2.7042 3.48528 -0.875469 9.86419 0.185274 16.3232C0.868423 20.4861 3.01351 23.7056 6.51992 26.0092C8.29908 27.1673 10.3242 27.8867 12.431 28.1088C13.4652 28.2345 14.5107 28.2345 15.545 28.1088C16.0598 28.0649 16.5706 27.9812 17.0727 27.8585C19.5357 27.3 21.8029 26.0809 23.6344 24.3305C25.4658 22.58 26.7934 20.3632 27.4765 17.9148C27.7183 17.0942 27.8683 16.2489 27.9236 15.3948C27.9338 15.3607 27.9417 15.326 27.9472 15.2909C28.0444 14.1844 28.0073 13.07 27.8367 11.9726ZM22.1852 13.0574C22.1367 14.1422 21.9156 15.1845 21.384 16.138C20.7269 17.3217 19.7693 18.1137 18.4253 18.3903C17.8906 18.5197 17.3318 18.5098 16.8019 18.3615C16.0566 18.1288 15.6716 17.5882 15.5337 16.8399C15.5188 16.7599 15.5077 16.6798 15.494 16.5897C15.4108 16.621 15.3934 16.6898 15.3586 16.7423C14.7686 17.6332 13.9924 18.2439 12.9155 18.4216C11.2685 18.7056 9.95557 17.7809 9.68603 16.118C9.23267 13.3652 10.9356 10.1595 14.365 9.669C15.5828 9.49653 16.8243 9.6466 17.967 10.1044C18.0007 10.1108 18.0325 10.1245 18.0603 10.1446C18.0881 10.1647 18.1112 10.1907 18.128 10.2207C18.1449 10.2508 18.1549 10.2841 18.1576 10.3185C18.1602 10.3529 18.1554 10.3875 18.1434 10.4198C17.895 11.93 17.6465 13.4428 17.4093 14.9556C17.3241 15.3793 17.3157 15.8151 17.3845 16.2418C17.4789 16.7086 17.7745 16.91 18.2378 16.8412C18.7247 16.7686 19.0924 16.4959 19.4004 16.1317C19.8524 15.571 20.1489 14.8997 20.2599 14.186C20.4984 12.901 20.4624 11.6297 19.978 10.4035C19.306 8.70302 18.0391 7.67198 16.2902 7.27533C14.0892 6.77483 12.0571 7.1865 10.2834 8.63171C8.9457 9.7228 8.1719 11.1668 7.82909 12.8509C7.55459 14.2098 7.5521 15.5712 7.9533 16.905C8.61036 19.1135 10.0897 20.4561 12.3217 20.909C13.9874 21.2666 15.7233 21.0658 17.2652 20.3372C17.3546 20.2959 17.3832 20.3084 17.4106 20.4023C17.5273 20.7977 17.6503 21.1918 17.7757 21.5847C17.8043 21.6748 17.7907 21.7186 17.6975 21.7599C16.8333 22.1473 15.9149 22.398 14.9748 22.5031C14.1593 22.6007 13.336 22.6133 12.518 22.5407C11.1797 22.4147 9.89878 21.9323 8.80663 21.143C8.77309 21.1193 8.73582 21.0992 8.70104 21.078C8.69975 21.0921 8.69975 21.1063 8.70104 21.1205C8.69975 21.1063 8.69975 21.0921 8.70104 21.078L8.69358 21.0867C8.61408 21.1005 8.58301 21.0592 8.57804 20.9866L8.54202 20.9528C8.51644 20.954 8.49135 20.9456 8.4716 20.9292C8.45186 20.9128 8.43889 20.8895 8.43521 20.864C7.79855 20.322 7.25724 19.6756 6.83414 18.9521C6.26187 17.9578 5.92204 16.8452 5.84047 15.6988C5.67031 13.4666 6.14481 11.3845 7.3869 9.51507C8.81157 7.37166 10.8151 6.1079 13.3415 5.70249C14.8879 5.45224 16.4095 5.55111 17.8813 6.13169C18.8907 6.52035 19.7921 7.14825 20.5095 7.96227C20.5443 8.00231 20.5841 8.03859 20.6201 8.07738L20.676 8.11617C20.7133 8.12493 20.7195 8.15372 20.7182 8.18625C20.7679 8.18625 20.794 8.20753 20.7878 8.26009C20.8064 8.29676 20.8271 8.33226 20.8499 8.36642C21.8585 9.77034 22.2597 11.3432 22.1852 13.0574Z" fill="white"/>
<path d="M15.5153 11.5996C14.6756 11.4207 13.918 11.5921 13.2671 12.1564C12.4188 12.8921 12.076 13.8593 12.0337 14.9579C12.0279 15.1804 12.0543 15.4025 12.112 15.6174C12.2362 16.0653 12.4933 16.3844 12.9665 16.482C13.4733 16.5871 13.8882 16.3919 14.2496 16.0566C14.7602 15.5793 15.1079 14.9518 15.2433 14.2635C15.4221 13.4277 15.4979 12.5731 15.6383 11.7297C15.6532 11.6196 15.5873 11.6158 15.5153 11.5996Z" fill="white"/>
</svg>
