<svg width="28" height="29" viewBox="0 0 28 29" fill="none" xmlns="http://www.w3.org/2000/svg">
<path d="M17.3437 0.408715C11.6171 -1.03412 5.46448 1.42983 2.272 6.43159C1.13681 8.20168 0.406179 10.2037 0.132925 12.2931C0.0770253 12.7098 0.0434773 13.129 0 13.5444V14.6469C0.0571415 15.1362 0.105574 15.628 0.172653 16.116C0.491048 18.4835 1.4234 20.7245 2.8757 22.6132C4.99615 25.3912 7.76503 27.1594 11.1724 27.8865C11.801 28.0216 12.4506 28.0617 13.0904 28.1468C13.2146 28.1643 13.3388 28.1881 13.463 28.2081H14.5636C14.8879 28.1706 15.2108 28.1305 15.5363 28.0955C18.1826 27.8314 20.6926 26.7867 22.7523 25.0922C25.5037 22.8497 27.2143 19.9615 27.8018 16.4439C28.3949 12.9342 27.6456 9.32854 25.705 6.35313C23.7645 3.37773 20.7768 1.25366 17.3437 0.408715ZM22.1175 20.661C21.3598 21.4894 20.2194 21.96 18.4753 21.9612C16.9623 21.8361 15.1723 21.069 13.5065 20.0178C10.9997 18.4348 9.09792 16.2362 7.63585 13.6746C6.35389 11.4309 6.55388 9.2372 8.03335 7.66797C8.87308 6.77323 9.89666 6.72943 10.5861 7.44397C10.7973 7.66891 10.9635 7.93275 11.0755 8.22107C11.3103 8.79545 11.4867 9.40612 11.7948 9.93796C12.3525 10.899 12.1537 11.6987 11.3861 12.3819C10.7575 12.9413 10.842 13.4393 11.278 14.0775C12.5202 15.9083 14.104 17.3086 16.1475 18.1846C16.6965 18.4211 17.0704 18.3948 17.4058 17.9055C17.4444 17.8528 17.4859 17.8022 17.53 17.7541C18.5238 16.5653 18.7871 16.2524 19.6318 16.554C20.0335 16.713 20.4269 16.8921 20.8107 17.0909L21.5982 17.4825C21.9184 17.6337 22.2033 17.8511 22.4343 18.1207C23.0206 18.829 22.9299 19.7713 22.1175 20.661Z" fill="white"/>
</svg>
