<svg width="43" height="43" viewBox="0 0 43 43" fill="none" xmlns="http://www.w3.org/2000/svg">
<path d="M27.8207 10.6933C23.7269 10.6933 19.6331 10.6933 15.5393 10.6933C14.948 10.6884 14.3618 10.8027 13.815 11.0294C13.2682 11.2561 12.772 11.5907 12.3554 12.0135C11.9389 12.4363 11.6105 12.9387 11.3895 13.4913C11.1686 14.0438 11.0596 14.6352 11.0689 15.2308C11.0689 17.277 11.0689 19.3245 11.0689 21.3732C11.0689 23.422 11.0689 25.4871 11.0689 27.5687C11.0652 28.1614 11.1782 28.749 11.4015 29.2974C11.6247 29.8458 11.9538 30.3441 12.3696 30.7635C12.7854 31.1829 13.2796 31.515 13.8237 31.7406C14.3678 31.9662 14.9509 32.0809 15.5393 32.0778C19.6306 32.0778 23.7237 32.0778 27.8188 32.0778C28.4072 32.0809 28.9904 31.9664 29.5346 31.7409C30.0788 31.5155 30.5731 31.1836 30.9892 30.7645C31.4052 30.3453 31.7347 29.8472 31.9585 29.299C32.1823 28.7508 32.296 28.1634 32.293 27.5706C32.293 23.4466 32.293 19.322 32.293 15.1967C32.2962 14.6042 32.1827 14.017 31.9591 13.469C31.7355 12.921 31.4062 12.4232 30.9902 12.0043C30.5742 11.5855 30.0799 11.2539 29.5359 11.0288C28.9918 10.8038 28.4088 10.6897 27.8207 10.6933ZM21.6819 27.804C20.4211 27.8047 19.1885 27.4287 18.14 26.7236C17.0914 26.0184 16.2741 25.0157 15.7914 23.8425C15.3087 22.6692 15.1823 21.3781 15.4282 20.1325C15.6741 18.8868 16.2813 17.7427 17.1729 16.8448C18.0645 15.9468 19.2004 15.3355 20.437 15.0882C21.6736 14.8408 22.9552 14.9685 24.1197 15.4551C25.2842 15.9418 26.2793 16.7655 26.979 17.822C27.6787 18.8785 28.0516 20.1202 28.0505 21.3903C28.049 23.0917 27.3776 24.7231 26.1837 25.9265C24.9898 27.1299 23.3708 27.8071 21.6819 27.8097V27.804ZM28.7358 15.724C28.4457 15.7218 28.1628 15.6329 27.9228 15.4687C27.6829 15.3044 27.4966 15.0722 27.3876 14.8013C27.2787 14.5304 27.252 14.2331 27.3108 13.9469C27.3695 13.6607 27.5113 13.3985 27.718 13.1934C27.9247 12.9884 28.1872 12.8496 28.4721 12.7948C28.7571 12.74 29.0518 12.7716 29.319 12.8855C29.5861 12.9994 29.8137 13.1905 29.9731 13.4348C30.1324 13.679 30.2163 13.9654 30.2141 14.2577C30.2133 14.452 30.1744 14.6442 30.0996 14.8232C30.0248 15.0023 29.9155 15.1647 29.7781 15.301C29.6406 15.4373 29.4778 15.5449 29.2989 15.6175C29.12 15.6901 28.9287 15.7263 28.7358 15.724Z" fill="white"/>
<path d="M21.6739 16.9285C20.7987 16.93 19.9435 17.1928 19.2165 17.6838C18.4894 18.1748 17.9231 18.8718 17.5892 19.6869C17.2553 20.5019 17.1687 21.3984 17.3404 22.263C17.5121 23.1276 17.9343 23.9215 18.5537 24.5445C19.1732 25.1674 19.962 25.5915 20.8206 25.7629C21.6791 25.9344 22.5689 25.8456 23.3774 25.5078C24.1859 25.1701 24.8769 24.5985 25.363 23.8652C25.8491 23.132 26.1086 22.27 26.1086 21.3883C26.1089 20.8019 25.9942 20.2212 25.7714 19.6796C25.5485 19.1379 25.2217 18.6458 24.8098 18.2315C24.3978 17.8172 23.9088 17.4889 23.3707 17.2653C22.8326 17.0417 22.256 16.9272 21.6739 16.9285Z" fill="white"/>
<path d="M21.45 7.44608e-07C17.2963 -0.00110512 13.2356 1.22961 9.78146 3.53645C6.32729 5.84328 3.63483 9.12264 2.04453 12.9598C0.454237 16.7969 0.0374961 21.0195 0.847154 25.0935C1.65681 29.1674 3.6565 32.9098 6.59318 35.8472C9.52986 38.7847 13.2716 40.7853 17.3454 41.5961C21.4191 42.4068 25.6418 41.9912 29.4794 40.402C33.3169 38.8127 36.597 36.1211 38.9048 32.6676C41.2125 29.214 42.4443 25.1537 42.4443 21C42.4451 18.2425 41.9026 15.5119 40.8478 12.9641C39.7931 10.4163 38.2468 8.10121 36.2972 6.15111C34.3476 4.20101 32.033 2.65406 29.4855 1.59865C26.9379 0.543229 24.2075 6.46825e-07 21.45 7.44608e-07ZM28.5562 33.5873C28.2207 33.6395 27.8818 33.6656 27.5423 33.6656C23.4795 33.6656 19.4167 33.6656 15.3539 33.6656C13.7177 33.6621 12.1415 33.0493 10.9328 31.9467C9.72404 30.8441 8.96941 29.3307 8.81604 27.7018C8.79554 27.4912 8.78619 27.2806 8.78619 27.07C8.78619 25.046 8.78619 23.0227 8.78619 21V14.9654C8.77011 13.3926 9.31876 11.8662 10.3324 10.6634C11.346 9.46071 12.7574 8.66144 14.3102 8.41083C14.6335 8.35655 14.9608 8.32914 15.2886 8.32884C19.3999 8.32884 23.51 8.32884 27.6188 8.32884C29.1936 8.34769 30.7092 8.93132 31.89 9.97353C33.0707 11.0157 33.838 12.4472 34.0522 14.0075C34.0937 14.3332 34.1149 14.6613 34.1155 14.9896C34.1155 19.0189 34.1155 23.0476 34.1155 27.0756C34.1185 28.6458 33.5597 30.1654 32.5401 31.3596C31.5206 32.5538 30.1075 33.344 28.5562 33.5873Z" fill="white"/>
</svg>
