<svg width="43" height="43" viewBox="0 0 43 43" fill="none" xmlns="http://www.w3.org/2000/svg">
<path d="M41.2807 26.4646C41.2807 26.4404 41.2938 26.4162 41.3012 26.3919C41.4615 25.7707 41.5963 25.1363 41.7056 24.489C41.9007 23.3275 41.9992 22.1518 42 20.974C41.9984 17.5501 41.1588 14.1786 39.5546 11.154C37.9504 8.12939 35.6303 5.54354 32.7969 3.62228C32.6944 3.55146 32.5901 3.48252 32.4857 3.41543L32.4354 3.38185C30.4659 2.10919 28.2993 1.17148 26.0236 0.606719C25.5317 0.481846 25.036 0.381218 24.5329 0.295484L24.2721 0.252621L23.8361 0.189237C23.6497 0.165008 23.4634 0.140759 23.2771 0.122121L23.0497 0.0979143C22.6149 0.055669 22.1758 0.0270985 21.7323 0.0121884C21.5889 0.0121884 21.4472 0.00285863 21.3037 0.000994861H21.0876C14.0814 -0.00832397 7.28757 3.54213 3.40808 9.57887C1.70524 12.2152 0.609327 15.197 0.199437 18.3088C0.128629 18.8288 0.0820639 19.3506 0.0317534 19.8724C0.0118776 20.2452 0.00124223 20.6211 0 21C0 21.3523 0.00934223 21.7008 0.0261124 22.0475C0.100646 22.7017 0.16959 23.3521 0.259031 24.0063C0.736634 27.5323 2.13523 30.87 4.31373 33.683C7.49447 37.8205 11.6479 40.4541 16.7591 41.5369C17.7019 41.7382 18.6764 41.7978 19.6361 41.9245C19.7441 41.9394 19.8503 41.9581 19.9584 41.9749C20.3031 41.9916 20.6497 42.001 20.9963 42.001C21.4472 42.001 21.8944 41.9866 22.3379 41.9581C22.6584 41.9189 22.9788 41.8817 23.2993 41.8481C24.9865 41.6739 26.646 41.2939 28.241 40.7168C28.39 40.6628 28.5391 40.6069 28.6863 40.5491H28.7031C29.5818 40.2018 30.436 39.7951 31.2596 39.3321C31.3714 39.2687 31.4832 39.2053 31.5932 39.1457L31.7143 39.0748C32.5558 38.5683 33.3609 38.0035 34.1236 37.3844C35.1113 36.5885 36.03 35.7106 36.8701 34.7602C38.8165 32.5149 40.264 29.8817 41.1167 27.0349C41.1764 26.8374 41.2322 26.651 41.2807 26.4646ZM32.8956 26.1552C32.5975 28.019 31.5559 29.1149 30.0186 29.2733C29.1875 29.359 28.351 29.4448 27.5162 29.4485C23.1882 29.4646 18.859 29.4646 14.5286 29.4485C13.755 29.4283 12.983 29.366 12.2161 29.2621C10.4515 29.059 9.47335 28.0935 9.15844 26.1757C8.98837 25.2281 8.89672 24.2682 8.88449 23.3055C8.89753 20.9851 8.95531 18.6629 9.08202 16.3462C9.14902 15.6396 9.34615 14.9515 9.6634 14.3166C9.87121 13.8572 10.204 13.4656 10.6237 13.1864C11.0435 12.9073 11.5334 12.7519 12.0373 12.738C14.3702 12.5945 16.7069 12.5274 19.0417 12.4416C19.705 12.4174 20.3702 12.4416 21.0336 12.4416C21.0336 12.4211 21.0336 12.3987 21.0336 12.3764C23.782 12.4658 26.5286 12.5385 29.2752 12.6559C29.8415 12.6819 30.4002 12.7957 30.9316 12.9933C32.2062 13.4742 32.6702 14.585 32.8863 15.8095C33.0234 16.6024 33.1055 17.4039 33.1323 18.2081C33.2329 20.8733 33.313 23.5292 32.8938 26.1627L32.8956 26.1552Z" fill="white"/>
<path d="M18.8081 24.5023V17.7434L25.2595 21.1314L18.8081 24.5023Z" fill="white"/>
</svg>
