<svg width="28" height="30" viewBox="0 0 28 30" fill="none" xmlns="http://www.w3.org/2000/svg">
<path d="M14.2067 12.3046C14.5832 12.2995 14.9428 12.1468 15.2094 11.879C15.4759 11.6111 15.6285 11.2492 15.6346 10.87C15.6356 10.4852 15.4848 10.1157 15.2154 9.84292C15.0819 9.70784 14.9234 9.60054 14.7489 9.52717C14.5743 9.45379 14.3871 9.41578 14.198 9.41529C13.816 9.41429 13.4492 9.56618 13.1784 9.83759C12.9076 10.109 12.7549 10.4776 12.7539 10.8625C12.7595 11.2469 12.915 11.6137 13.1868 11.8836C13.4587 12.1534 13.8251 12.3047 14.2067 12.3046Z" fill="white"/>
<path d="M22.7377 26.0349C25.4975 23.7857 27.2133 20.8888 27.8013 17.3605C28.2491 14.7098 27.9363 11.9854 26.8997 9.50762C25.8631 7.02986 24.1458 4.90176 21.9497 3.37354C19.7536 1.84532 17.17 0.98052 14.5027 0.880809C11.8355 0.781098 9.19535 1.45063 6.89286 2.81068L6.84677 2.83829C6.777 2.87846 6.7097 2.92239 6.64117 2.96381C4.19756 4.49047 2.2781 6.73605 1.14218 9.39706C0.00625312 12.0581 -0.29135 15.0062 0.289563 17.8431C0.870476 20.68 2.3019 23.2689 4.39041 25.2598C6.47892 27.2508 9.12381 28.5479 11.9677 28.9758C12.2729 29.0134 12.5794 29.0436 12.8847 29.0812C13.266 29.1126 13.6497 29.1289 14.0385 29.1289C14.4795 29.1289 14.9106 29.1076 15.3442 29.0674L15.5 29.0498C18.1545 28.7842 20.6722 27.7355 22.7377 26.0349ZM11.9702 5.66617C15.1262 4.41101 19.279 6.11302 20.0241 10.2889C20.2508 11.5604 19.8995 12.734 19.4011 13.8825C18.4566 16.0551 17.0836 17.9504 15.6632 19.8181C15.333 20.2524 15.0041 20.6879 14.6577 21.1084C14.2839 21.559 13.94 21.5665 13.5899 21.1222C11.7696 18.8115 10.0277 16.4468 8.75559 13.7682C8.35302 12.971 8.14216 12.0896 8.14007 11.1952C8.14007 8.76894 9.69752 6.5724 11.9702 5.66617ZM14.2578 24.722C13.0481 24.7454 11.841 24.6031 10.6694 24.299C9.99474 24.1229 9.36017 23.8174 8.80043 23.3991C7.90209 22.7213 7.86221 21.7862 8.69825 21.0381C9.45331 20.3641 10.3666 20.0855 11.341 19.9712C11.6998 19.9286 11.8917 20.0729 11.9639 20.3591C12.0362 20.6453 11.9029 20.8888 11.5777 21.0231C11.0793 21.2277 10.5398 21.2741 10.0713 21.549C9.87194 21.6455 9.68106 21.7589 9.50068 21.8879C9.1705 22.1615 9.17795 22.3021 9.54177 22.5155C10.3359 22.9792 11.2126 23.2815 12.1222 23.4054C14.0272 23.6966 15.9111 23.6288 17.7539 23.005C18.1123 22.9032 18.4478 22.7328 18.742 22.5029C19.0447 22.2418 19.0372 22.0899 18.7095 21.8753C18.1414 21.4988 17.4948 21.2979 16.8494 21.1021C16.6747 21.0529 16.521 20.947 16.412 20.8009C16.3493 20.7342 16.3083 20.6497 16.2947 20.5588C16.2811 20.4679 16.2955 20.375 16.336 20.2926C16.4319 20.0993 16.5852 19.9436 16.8045 19.9687C17.9595 20.103 19.0472 20.4219 19.8247 21.362C20.2757 21.9042 20.2147 22.646 19.7001 23.1857C19.1394 23.7756 18.433 24.107 17.6567 24.2915C16.5414 24.5526 15.4025 24.6986 14.2578 24.7271V24.722Z" fill="white"/>
<path d="M13.965 19.7816C14.0896 19.9536 14.1606 19.9297 14.2715 19.7816C14.6291 19.2921 14.9992 18.8126 15.3543 18.3219C16.4146 16.8546 17.4724 15.386 18.2312 13.7292C18.5689 12.9937 18.924 12.2569 18.9476 11.426C19.0236 8.80897 17.1809 6.73296 14.5544 6.4631C13.8896 6.39588 13.2182 6.46946 12.5833 6.67917C11.9484 6.88887 11.3641 7.23004 10.8679 7.68075C10.3716 8.13146 9.97449 8.68176 9.70193 9.29628C9.42937 9.9108 9.28744 10.5759 9.28522 11.249C9.28111 12.0127 9.47158 12.7647 9.83842 13.433C11.0258 15.6709 12.4786 17.7382 13.965 19.7816ZM14.2142 8.24919C14.7252 8.25341 15.2235 8.40999 15.6462 8.69919C16.069 8.9884 16.3972 9.39726 16.5895 9.87419C16.7818 10.3511 16.8296 10.8747 16.7268 11.379C16.624 11.8832 16.3752 12.3455 16.0119 12.7075C15.6486 13.0694 15.187 13.3149 14.6853 13.4129C14.1837 13.5109 13.6645 13.457 13.1932 13.258C12.7219 13.059 12.3197 12.7238 12.0373 12.2948C11.7549 11.8658 11.605 11.3621 11.6064 10.8474C11.6077 10.5042 11.6763 10.1647 11.8081 9.84826C11.9398 9.53183 12.1323 9.24469 12.3745 9.00333C12.6166 8.76197 12.9036 8.5711 13.2191 8.44169C13.5346 8.31228 13.8723 8.24688 14.213 8.24919H14.2142Z" fill="white"/>
</svg>
