<svg width="23" height="24" viewBox="0 0 23 24" fill="none" xmlns="http://www.w3.org/2000/svg">
<path d="M11.3193 6.58631C7.17563 6.81812 4.84297 11.1908 6.94186 14.7772C7.02401 14.9339 7.04992 15.1141 7.01534 15.2877C6.89283 15.83 6.73054 16.363 6.557 16.9941C7.17666 16.8318 7.72076 16.6714 8.27407 16.556C8.47094 16.516 8.67555 16.5422 8.85598 16.6306C12.4341 18.6505 16.8544 16.0873 16.8718 11.974C16.884 8.93502 14.2951 6.42395 11.3193 6.58631ZM14.4942 14.5178C14.1879 14.8537 13.7194 15.0447 13.0078 15.0457C12.3902 14.9937 11.6592 14.6832 10.9804 14.2574C9.95949 13.6161 9.1816 12.7256 8.58541 11.6871C8.06171 10.7782 8.14341 9.8888 8.74776 9.25057C9.18673 8.78593 9.7482 8.88805 9.99014 9.47522C10.0718 9.71377 10.1697 9.94647 10.2831 10.1717C10.5108 10.5607 10.4301 10.8865 10.1167 11.1622C9.86047 11.3889 9.89419 11.5901 10.0728 11.8495C10.559 12.5858 11.2494 13.1643 12.0594 13.514C12.284 13.6089 12.4361 13.5977 12.5699 13.4006C12.5852 13.3781 12.6035 13.3588 12.6199 13.3383C13.1711 12.6868 13.1711 12.6868 13.9592 13.0698L14.2808 13.2291C14.8535 13.514 14.9352 14.0409 14.4942 14.5219V14.5178Z" fill="#FEFEFE"/>
<path d="M23 11.9832C22.9948 10.1579 22.556 8.35997 21.7196 6.73768C20.8833 5.11538 19.6734 3.7152 18.1897 2.65258C16.7061 1.58996 14.9911 0.895354 13.1864 0.626037C11.3816 0.356719 9.5387 0.520423 7.80959 1.10362L7.58498 1.18225C7.5074 1.21084 7.42981 1.23942 7.35325 1.27005L7.2226 1.32111C7.12051 1.36298 7.01842 1.4069 6.91021 1.45183L6.84182 1.48144C6.71829 1.53659 6.59578 1.59274 6.4743 1.65197L6.46204 1.65811C6.34157 1.71733 6.22111 1.77861 6.10269 1.84192L6.06695 1.86132C5.95057 1.92259 5.83622 1.98694 5.72291 2.05331L5.64739 2.09824C5.55858 2.15032 5.47077 2.20036 5.384 2.25857L5.26556 2.33414C5.18696 2.38417 5.10942 2.43623 5.03183 2.48933L4.86235 2.60678L4.77761 2.66704C4.65035 2.75963 4.5241 2.85457 4.39888 2.95193C3.83094 3.39825 3.30627 3.89709 2.83185 4.44183L2.76754 4.51535C2.72058 4.56947 2.67466 4.62463 2.62872 4.67977C2.54909 4.78189 2.47046 4.8748 2.39389 4.97488L2.37654 4.99734C2.19687 5.23357 2.02673 5.47697 1.86611 5.7275C0.934172 7.17245 0.333792 8.80596 0.108167 10.5107C0.0714165 10.7843 0.0469537 11.059 0.0193904 11.3348C0.00714005 11.5564 0 11.779 0 12.0047C0 12.1874 -1.19627e-05 12.3682 0.0132592 12.5489C0.0540937 12.9104 0.0908208 13.2729 0.141864 13.6324C0.403319 15.5642 1.16917 17.3929 2.36224 18.9343C4.10485 21.2013 6.38138 22.6443 9.18058 23.2376C9.69816 23.3479 10.231 23.3805 10.7568 23.45C10.8589 23.4643 10.961 23.4837 11.063 23.5H11.9624C12.2289 23.4694 12.4953 23.4367 12.7618 23.4081C14.9368 23.1926 17 22.3401 18.693 20.9573C19.6223 20.2132 20.4339 19.3329 21.1002 18.3461C21.5305 17.6965 21.8934 17.0047 22.1833 16.2813C22.218 16.1925 22.2537 16.1047 22.2854 16.0148C22.2956 15.9872 22.3048 15.9607 22.315 15.9341C22.5497 15.2729 22.7257 14.5922 22.8407 13.9C22.9459 13.2665 22.9992 12.6254 23 11.9832ZM13.0354 18.2277C11.5893 18.578 10.0667 18.42 8.72324 17.7804C8.52233 17.6968 8.30043 17.6779 8.08829 17.7263C7.16951 17.9438 6.26502 18.195 5.35339 18.4319C5.26764 18.4544 5.17779 18.4636 5.03079 18.4901C5.31254 17.4577 5.58816 16.4876 5.83317 15.5103C5.88064 15.3123 5.86165 15.1042 5.77909 14.9181C3.75676 10.8456 6.28953 6.11146 10.7956 5.54879C14.14 5.13215 17.2709 7.48901 17.8712 10.8742C18.4561 14.1777 16.297 17.4669 13.0354 18.2277Z" fill="#FEFEFE"/>
</svg>
